<?xml version="1.0" encoding="utf-8"?>
<!-- Generator: Adobe Illustrator 24.0.1, SVG Export Plug-In . SVG Version: 6.00 Build 0)  -->
<svg version="1.1" id="Capa_1" xmlns="http://www.w3.org/2000/svg" xmlns:xlink="http://www.w3.org/1999/xlink" x="0px" y="0px"
	 viewBox="0 0 304 45" style="enable-background:new 0 0 304 45;" xml:space="preserve">
<style type="text/css">
	.st0{fill:#380078;}
	.st1{fill-rule:evenodd;clip-rule:evenodd;fill:#380078;}
	.st2{fill:#FFFFFF;}
</style>
<path class="st0" d="M14.3,3c2.3,0,4.3,0.4,6,1.3c1.7,0.8,3,2,4,3.6c1,1.5,1.5,3.4,1.5,5.4c0,2.2-0.6,4.1-1.7,5.7
	c-1.2,1.6-2.7,2.8-4.6,3.5l6.9,12.9h-6l-6.2-11.8H6.8v-16l0-4.6L14.3,3z M6.8,19h7.1c1.9,0,3.5-0.5,4.6-1.5c1.2-1.1,1.7-2.4,1.7-4.2
	s-0.6-3.1-1.7-4.1c-1.1-1.1-2.7-1.6-4.6-1.6H6.8V19z"/>
<path class="st0" d="M6.8,23.7V19L5,23.7H6.8z"/>
<path class="st0" d="M0,5.3C0,4,1,3,2.3,3h7.4C11,3,12,4,12,5.3s-1,2.3-2.3,2.3H2.3C1,7.6,0,6.6,0,5.3z"/>
<path class="st0" d="M164.9,26.9c-0.5,2.8-1.7,4.9-3.6,6.5c-1.9,1.5-4.4,2.3-7.4,2.3c-2.4,0-4.5-0.5-6.3-1.5c-1.8-1-3.2-2.5-4.2-4.3
	c-1-1.9-1.5-4-1.5-6.4s0.5-4.5,1.5-6.4c1-1.8,2.4-3.2,4.2-4.2c1.8-1,4-1.5,6.4-1.5c3,0,5.4,0.8,7.4,2.4c1.9,1.5,3.1,3.7,3.6,6.4
	h-5.2c-0.3-1.4-1-2.4-2.1-3.2c-1-0.8-2.3-1.2-3.8-1.2c-2,0-3.7,0.7-4.9,2.2c-1.2,1.5-1.8,3.3-1.8,5.7c0,2.3,0.6,4.3,1.8,5.7
	c1.2,1.5,2.9,2.2,4.9,2.2c1.6,0,2.9-0.4,3.9-1.2c1-0.8,1.7-1.9,2-3.3H164.9z"/>
<path class="st0" d="M141.7,11.7v4.7h-2.2c-2.1,0-3.6,0.7-4.5,2c-0.9,1.3-1.4,3-1.4,5.1v11.9h-5.1V11.7h4.5l0.6,3.6
	c0.7-1.1,1.6-2,2.7-2.6c1.1-0.6,2.6-1,4.4-1H141.7z"/>
<path class="st0" d="M126.6,31.1v4.4H124c-1.6,0-2.7-0.3-3.4-1c-0.7-0.6-1-1.6-1-2.8c-1.8,2.7-4.4,4.1-7.9,4.1
	c-2.7,0-4.8-0.6-6.5-1.9c-1.6-1.2-2.4-2.9-2.4-5.1c0-2.4,0.9-4.3,2.6-5.6c1.7-1.3,4.3-2,7.6-2h6v-1.4c0-1.3-0.5-2.4-1.4-3.1
	c-0.9-0.8-2.2-1.2-3.9-1.2c-1.5,0-2.7,0.3-3.7,1c-0.9,0.6-1.5,1.5-1.7,2.5h-5c0.3-2.4,1.3-4.2,3.2-5.5c1.9-1.3,4.3-2,7.4-2
	c3.2,0,5.7,0.7,7.4,2.2c1.7,1.5,2.6,3.6,2.6,6.4v9.4c0,1.1,0.5,1.7,1.6,1.7H126.6z M119,24.9h-6.3c-1.6,0-2.8,0.3-3.6,0.9
	c-0.8,0.6-1.3,1.5-1.3,2.6c0,1,0.4,1.8,1.2,2.5c0.8,0.6,1.9,0.9,3.3,0.9c2.1,0,3.7-0.6,4.9-1.7c1.2-1.1,1.8-2.6,1.8-4.5V24.9z"/>
<path class="st1" d="M173.1,3H168v32.5h5.1V18.7c0.2-0.9,0.8-1.6,1.6-2.2c1-0.6,2.2-1,3.7-1c1.7,0,3,0.4,3.9,1.2
	c0.4,0.3,0.6,0.6,0.9,1l1.8-4.7c-1.6-1-3.7-1.4-6.3-1.4c-2.1,0-4,0.3-5.5,1V3z"/>
<path class="st0" d="M77,23.6c0-2.4,0.5-4.6,1.5-6.4c1-1.9,2.4-3.3,4.1-4.3c1.8-1,3.8-1.5,6.1-1.5c2.3,0,4.3,0.5,6.1,1.4
	c1.8,0.9,3.2,2.2,4.2,3.9c1,1.7,1.6,3.7,1.6,6c0,0.6,0,1.3-0.1,1.9H82.3v0.3c0.1,2.1,0.8,3.7,2,4.9c1.2,1.2,2.8,1.8,4.7,1.8
	c1.6,0,2.9-0.4,3.9-1.1c1.1-0.7,1.8-1.8,2.1-3.1h5.1c-0.4,2.4-1.6,4.4-3.6,5.9c-1.9,1.5-4.3,2.3-7.2,2.3c-2.5,0-4.7-0.5-6.6-1.5
	c-1.8-1-3.3-2.4-4.3-4.3C77.5,28.2,77,26,77,23.6z M95.4,21c-0.2-1.7-0.9-3.1-2.1-4c-1.2-1-2.6-1.5-4.4-1.5c-1.7,0-3.1,0.5-4.3,1.5
	c-1.2,1-1.9,2.3-2.1,4H95.4z"/>
<path class="st0" d="M58.7,27.6c0.1,1.2,0.7,2.3,1.7,3.1c1.1,0.8,2.5,1.2,4.2,1.2c1.5,0,2.8-0.3,3.7-0.8c1-0.6,1.5-1.4,1.5-2.3
	c0-0.8-0.2-1.4-0.7-1.8c-0.4-0.4-1-0.7-1.8-0.8c-0.7-0.2-1.8-0.4-3.4-0.6c-2.1-0.2-3.8-0.6-5.2-1c-1.3-0.4-2.4-1.1-3.3-2
	c-0.8-0.9-1.2-2.2-1.2-3.7c0-1.5,0.4-2.7,1.2-3.8c0.8-1.1,2-2,3.4-2.6c1.5-0.6,3.1-0.9,5-0.9c3,0,5.5,0.7,7.4,2
	c1.9,1.3,2.9,3.2,3.1,5.6h-4.9c-0.1-1.1-0.7-2-1.6-2.6c-1-0.7-2.2-1.1-3.7-1.1c-1.5,0-2.7,0.3-3.6,0.8c-0.9,0.6-1.4,1.3-1.4,2.3
	c0,0.7,0.2,1.3,0.7,1.6c0.5,0.3,1,0.6,1.7,0.7c0.7,0.1,1.8,0.3,3.3,0.5c2.1,0.2,3.8,0.6,5.2,1c1.4,0.4,2.5,1.1,3.4,2.1
	c0.8,1,1.3,2.3,1.3,3.9c0,1.5-0.4,2.8-1.3,3.9c-0.9,1.1-2.1,2-3.6,2.6c-1.5,0.6-3.2,0.9-5.2,0.9c-3.2,0-5.8-0.7-7.8-2.1
	c-2-1.5-3-3.4-3-6H58.7z"/>
<path class="st0" d="M28.1,23.6c0-2.4,0.5-4.6,1.5-6.4c1-1.9,2.4-3.3,4.1-4.3c1.8-1,3.8-1.5,6.1-1.5c2.3,0,4.3,0.5,6.1,1.4
	c1.8,0.9,3.2,2.2,4.2,3.9c1,1.7,1.6,3.7,1.6,6c0,0.6,0,1.3-0.1,1.9H33.4v0.3c0.1,2.1,0.8,3.7,2,4.9c1.2,1.2,2.8,1.8,4.7,1.8
	c1.6,0,2.9-0.4,3.9-1.1c1.1-0.7,1.8-1.8,2.1-3.1h5.1c-0.4,2.4-1.6,4.4-3.6,5.9c-1.9,1.5-4.3,2.3-7.2,2.3c-2.5,0-4.7-0.5-6.6-1.5
	c-1.8-1-3.3-2.4-4.3-4.3C28.6,28.2,28.1,26,28.1,23.6z M46.5,21c-0.2-1.7-0.9-3.1-2.1-4c-1.2-1-2.6-1.5-4.4-1.5
	c-1.7,0-3.1,0.5-4.3,1.5c-1.2,1-1.9,2.3-2.1,4H46.5z"/>
<path class="st2" d="M304,31.1v4.4h-2.7c-1.6,0-2.7-0.3-3.4-1c-0.7-0.6-1-1.6-1-2.8c-1.8,2.7-4.4,4.1-7.9,4.1
	c-2.7,0-4.8-0.6-6.5-1.9c-1.6-1.2-2.4-2.9-2.4-5.1c0-2.4,0.9-4.3,2.6-5.6c1.7-1.3,4.3-2,7.6-2h6v-1.4c0-1.3-0.5-2.4-1.4-3.1
	c-0.9-0.8-2.2-1.2-3.9-1.2c-1.5,0-2.7,0.3-3.7,1c-0.9,0.6-1.5,1.5-1.7,2.5h-5c0.3-2.4,1.3-4.2,3.2-5.5c1.9-1.3,4.3-2,7.4-2
	c3.2,0,5.7,0.7,7.4,2.2c1.7,1.5,2.6,3.6,2.6,6.4v9.4c0,1.1,0.5,1.7,1.6,1.7H304z M296.4,24.9h-6.3c-1.6,0-2.8,0.3-3.6,0.9
	c-0.8,0.6-1.3,1.5-1.3,2.6c0,1,0.4,1.8,1.2,2.5c0.8,0.6,1.9,0.9,3.3,0.9c2.1,0,3.7-0.6,4.9-1.7c1.2-1.1,1.8-2.6,1.8-4.5V24.9z"/>
<path class="st2" d="M279.7,11.7v4.7h-2.2c-2.1,0-3.6,0.7-4.5,2c-0.9,1.3-1.4,3-1.4,5.1v11.9h-5.1V11.7h4.5l0.6,3.6
	c0.7-1.1,1.6-2,2.7-2.6c1.1-0.6,2.6-1,4.4-1H279.7z"/>
<path class="st2" d="M251.1,35.7c-2.4,0-4.5-0.5-6.4-1.5c-1.8-1-3.3-2.4-4.3-4.3c-1-1.9-1.5-4-1.5-6.4c0-2.4,0.5-4.5,1.5-6.3
	c1-1.9,2.5-3.3,4.3-4.3c1.9-1,4-1.5,6.4-1.5c2.4,0,4.5,0.5,6.4,1.5c1.9,1,3.3,2.5,4.3,4.3c1,1.8,1.5,3.9,1.5,6.3
	c0,2.4-0.5,4.5-1.5,6.4c-1,1.8-2.4,3.2-4.3,4.3C255.6,35.2,253.5,35.7,251.1,35.7z M251.1,31.5c2.1,0,3.8-0.7,5.1-2.2
	c1.3-1.5,2-3.4,2-5.7s-0.7-4.2-2-5.7c-1.3-1.5-3-2.2-5.1-2.2s-3.8,0.7-5.1,2.2c-1.3,1.5-1.9,3.3-1.9,5.7s0.6,4.2,1.9,5.7
	C247.3,30.7,249,31.5,251.1,31.5z"/>
<path class="st2" d="M235.8,11.7v22.8c0,3.3-1,5.9-3,7.7c-2,1.9-5.1,2.8-9.3,2.8c-3.2,0-5.9-0.7-7.9-2.2c-2-1.4-3.2-3.4-3.4-6.1h5.2
	c0.3,1.3,1,2.3,2.2,3.1c1.1,0.7,2.6,1.1,4.4,1.1c4.6,0,6.9-2.2,6.9-6.6v-2.6c-1.7,2.6-4.4,3.9-7.8,3.9c-2.2,0-4.1-0.5-5.9-1.4
	c-1.7-1-3.1-2.4-4-4.2c-1-1.8-1.5-4-1.5-6.4c0-2.4,0.5-4.5,1.5-6.3c1-1.8,2.4-3.2,4.1-4.2c1.7-1,3.7-1.5,5.8-1.5
	c1.8,0,3.4,0.4,4.7,1.1c1.3,0.7,2.4,1.7,3.2,2.9l0.6-3.7H235.8z M223.8,31.3c2.1,0,3.8-0.7,5.1-2.1c1.3-1.5,1.9-3.3,1.9-5.6
	c0-2.3-0.6-4.2-1.9-5.7c-1.3-1.5-3-2.2-5.1-2.2c-2.1,0-3.8,0.7-5.1,2.2c-1.3,1.5-1.9,3.3-1.9,5.7s0.6,4.2,1.9,5.7
	C220,30.6,221.7,31.3,223.8,31.3z"/>
<path class="st2" d="M180,36c0,0,11.8-31.5,12.7-34.1c0.9-2.6,5.7-2.6,6.6,0C201.3,6.9,212,36,212,36h-6l-3.2-8.4h-13.9l-3.2,8.4
	H180z M190.5,22.8h10.8L195.9,8L190.5,22.8z"/>
</svg>
