<svg width="304" height="45" viewBox="0 0 304 45" fill="none" xmlns="http://www.w3.org/2000/svg">
<path d="M14.3089 3.00002C16.5878 3.00002 18.5858 3.43269 20.3028 4.29803C22.0198 5.13247 23.3466 6.33777 24.2831 7.91393C25.2509 9.45919 25.7348 11.2671 25.7348 13.3378C25.7348 15.5011 25.1572 17.4018 24.0022 19.0398C22.8471 20.6777 21.3018 21.8367 19.3662 22.5166L26.2967 35.4504H20.3028L14.0747 23.6755H6.76967V7.63579L6.76965 3L14.3089 3.00002ZM6.76967 19.0398H13.8874C15.823 19.0398 17.3527 18.5298 18.4765 17.51C19.6316 16.4592 20.2091 15.0685 20.2091 13.3378C20.2091 11.6071 19.6316 10.2318 18.4765 9.21194C17.3527 8.16117 15.823 7.63579 13.8874 7.63579H6.76967V19.0398Z" fill="white"/>
<path d="M6.77002 23.6758V19.04L5.03596 23.6758H6.77002Z" fill="white"/>
<path d="M0 5.31788C0 4.03775 1.04827 3 2.34137 3H9.70576C10.9989 3 12.0471 4.03775 12.0471 5.31788C12.0471 6.59801 10.9989 7.63576 9.70576 7.63576H2.34137C1.04827 7.63576 0 6.59801 0 5.31788Z" fill="white"/>
<path d="M164.924 26.9205C164.456 29.6711 163.254 31.8344 161.318 33.4106C159.383 34.9558 156.901 35.7285 153.873 35.7285C151.5 35.7285 149.408 35.234 147.598 34.245C145.787 33.2251 144.382 31.7881 143.383 29.9337C142.415 28.0794 141.932 25.947 141.932 23.5364C141.932 21.1258 142.431 19.0088 143.43 17.1854C144.429 15.362 145.834 13.9558 147.644 12.9668C149.486 11.9469 151.609 11.437 154.013 11.437C157.01 11.437 159.461 12.2251 161.365 13.8013C163.269 15.3465 164.456 17.4635 164.924 20.1523H159.726C159.383 18.7924 158.696 17.7108 157.666 16.9072C156.635 16.1037 155.371 15.7019 153.873 15.7019C151.843 15.7019 150.204 16.4282 148.956 17.8807C147.738 19.3333 147.129 21.2185 147.129 23.5364C147.129 25.8852 147.738 27.8013 148.956 29.2847C150.204 30.7373 151.843 31.4636 153.873 31.4636C155.433 31.4636 156.729 31.0618 157.759 30.2582C158.789 29.4238 159.461 28.3112 159.773 26.9205H164.924Z" fill="white"/>
<path d="M141.69 11.7153V16.3975H139.443C137.351 16.3975 135.837 17.0774 134.9 18.4372C133.964 19.7661 133.496 21.4659 133.496 23.5366V35.4505H128.438V11.7153H132.934L133.496 15.2849C134.182 14.1723 135.072 13.3069 136.165 12.6888C137.257 12.0398 138.725 11.7153 140.567 11.7153H141.69Z" fill="white"/>
<path d="M126.62 31.0927V35.4503H123.951C122.39 35.4503 121.266 35.1258 120.579 34.4768C119.892 33.8278 119.549 32.8852 119.549 31.649C117.738 34.3686 115.1 35.7285 111.635 35.7285C108.95 35.7285 106.796 35.1104 105.173 33.8742C103.549 32.6379 102.738 30.9382 102.738 28.7748C102.738 26.3333 103.612 24.4635 105.36 23.1655C107.108 21.8366 109.653 21.1721 112.993 21.1721H119.034V19.735C119.034 18.4061 118.565 17.3708 117.629 16.6291C116.692 15.8564 115.397 15.4701 113.742 15.4701C112.275 15.4701 111.057 15.7946 110.09 16.4436C109.153 17.0617 108.591 17.8962 108.404 18.947H103.44C103.69 16.5673 104.751 14.7284 106.624 13.4304C108.498 12.1015 110.948 11.437 113.976 11.437C117.192 11.437 119.674 12.1787 121.422 13.6622C123.17 15.1456 124.044 17.2781 124.044 20.0595V29.4238C124.044 30.5364 124.575 31.0927 125.636 31.0927H126.62ZM119.034 24.8808H112.759C111.198 24.8808 109.996 25.1898 109.153 25.8079C108.31 26.3951 107.889 27.2759 107.889 28.4503C107.889 29.4702 108.279 30.2892 109.06 30.9073C109.871 31.5254 110.964 31.8344 112.337 31.8344C114.429 31.8344 116.052 31.2781 117.207 30.1655C118.394 29.0529 119.003 27.5695 119.034 25.7152V24.8808Z" fill="white"/>
<path fill-rule="evenodd" clip-rule="evenodd" d="M173.1 3H168.043V35.4504H173.1V18.6513C173.334 17.7385 173.875 17.0026 174.722 16.4437C175.689 15.7947 176.907 15.4702 178.374 15.4702C180.029 15.4702 181.324 15.8565 182.261 16.6291C182.619 16.9125 182.908 17.2388 183.129 17.608L184.923 12.8646C183.289 11.9129 181.184 11.437 178.608 11.437C176.489 11.437 174.653 11.7624 173.1 12.4131V3Z" fill="white"/>
<path d="M77.0148 23.6291C77.0148 21.1876 77.4987 19.0551 78.4664 17.2317C79.4654 15.3774 80.839 13.9558 82.5872 12.9668C84.3667 11.9469 86.3959 11.437 88.6748 11.437C90.985 11.437 93.0142 11.9006 94.7624 12.8277C96.5418 13.7549 97.9311 15.0684 98.9301 16.7682C99.9603 18.4679 100.491 20.4613 100.522 22.7483C100.522 23.3664 100.475 24 100.382 24.649H82.3063V24.9271C82.4312 26.9978 83.0867 28.6357 84.273 29.841C85.4593 31.0463 87.0359 31.649 89.0026 31.649C90.5635 31.649 91.8747 31.2936 92.9361 30.5828C93.9976 29.841 94.7 28.8057 95.0434 27.4768H100.101C99.6637 29.8874 98.4774 31.8653 96.5419 33.4106C94.6375 34.9558 92.2493 35.7285 89.3772 35.7285C86.8798 35.7285 84.6945 35.234 82.8214 34.245C80.9795 33.2251 79.5435 31.8035 78.5132 29.9801C77.5143 28.1567 77.0148 26.0397 77.0148 23.6291ZM95.3712 20.9867C95.1526 19.256 94.4502 17.9116 93.2639 16.9536C92.1088 15.9646 90.6416 15.4701 88.8621 15.4701C87.2076 15.4701 85.7715 15.9801 84.554 16.9999C83.3677 17.9889 82.6809 19.3178 82.4936 20.9867H95.3712Z" fill="white"/>
<path d="M58.6777 27.6158C58.7713 28.852 59.3489 29.8719 60.4103 30.6754C61.5029 31.4481 62.9078 31.8344 64.6248 31.8344C66.1545 31.8344 67.3876 31.5562 68.3241 30.9999C69.2919 30.4127 69.7758 29.6401 69.7758 28.6821C69.7758 27.8785 69.5573 27.2759 69.1202 26.8741C68.6832 26.4723 68.09 26.1942 67.3408 26.0397C66.6227 25.8542 65.4989 25.6688 63.9692 25.4834C61.8776 25.2361 60.1449 24.9116 58.7713 24.5099C57.4289 24.0772 56.3363 23.4127 55.4934 22.5165C54.6817 21.5893 54.2759 20.3531 54.2759 18.8079C54.2759 17.3553 54.6817 16.0728 55.4934 14.9602C56.3363 13.8167 57.4758 12.9359 58.9118 12.3178C60.3791 11.6997 62.0337 11.3906 63.8755 11.3906C66.9037 11.3906 69.3544 12.0551 71.2275 13.384C73.1318 14.7129 74.162 16.5827 74.3181 18.9933H69.4012C69.2763 17.9116 68.73 17.0308 67.7622 16.3509C66.7944 15.6401 65.5769 15.2847 64.1097 15.2847C62.6424 15.2847 61.4561 15.5628 60.5508 16.1191C59.6454 16.6754 59.1928 17.4326 59.1928 18.3906C59.1928 19.1015 59.4113 19.6423 59.8484 20.0132C60.3166 20.3531 60.8942 20.6004 61.581 20.7549C62.2678 20.8785 63.376 21.033 64.9057 21.2185C66.9662 21.4348 68.6988 21.7748 70.1036 22.2383C71.5084 22.671 72.6323 23.3818 73.4752 24.3708C74.3181 25.3288 74.7395 26.6423 74.7395 28.3112C74.7395 29.7946 74.3025 31.1081 73.4283 32.2516C72.5542 33.3642 71.3523 34.2295 69.8226 34.8476C68.2929 35.4348 66.5759 35.7284 64.6716 35.7284C61.4561 35.7284 58.8494 35.0176 56.8514 33.596C54.8847 32.1434 53.8701 30.1501 53.8076 27.6158H58.6777Z" fill="white"/>
<path d="M28.1278 23.6291C28.1278 21.1876 28.6117 19.0551 29.5795 17.2317C30.5784 15.3774 31.9521 13.9558 33.7003 12.9668C35.4797 11.9469 37.5089 11.437 39.7879 11.437C42.098 11.437 44.1272 11.9006 45.8754 12.8277C47.6549 13.7549 49.0441 15.0684 50.0431 16.7682C51.0733 18.4679 51.604 20.4613 51.6352 22.7483C51.6352 23.3664 51.5884 24 51.4947 24.649H33.4193V24.9271C33.5442 26.9978 34.1998 28.6357 35.3861 29.841C36.5724 31.0463 38.1489 31.649 40.1157 31.649C41.6766 31.649 42.9877 31.2936 44.0492 30.5828C45.1106 29.841 45.813 28.8057 46.1564 27.4768H51.2138C50.7767 29.8874 49.5904 31.8653 47.6549 33.4106C45.7506 34.9558 43.3624 35.7285 40.4903 35.7285C37.9928 35.7285 35.8075 35.234 33.9344 34.245C32.0925 33.2251 30.6565 31.8035 29.6263 29.9801C28.6273 28.1567 28.1278 26.0397 28.1278 23.6291ZM46.4842 20.9867C46.2657 19.256 45.5633 17.9116 44.377 16.9536C43.2219 15.9646 41.7546 15.4701 39.9752 15.4701C38.3206 15.4701 36.8846 15.9801 35.667 16.9999C34.4807 17.9889 33.7939 19.3178 33.6066 20.9867H46.4842Z" fill="white"/>
<path d="M304 31.0927V35.4503H301.331C299.77 35.4503 298.646 35.1258 297.959 34.4768C297.272 33.8278 296.929 32.8852 296.929 31.649C295.118 34.3686 292.48 35.7285 289.015 35.7285C286.33 35.7285 284.176 35.1104 282.553 33.8742C280.93 32.6379 280.118 30.9382 280.118 28.7748C280.118 26.3333 280.992 24.4635 282.74 23.1655C284.488 21.8366 287.033 21.1721 290.373 21.1721H296.414V19.735C296.414 18.4061 295.946 17.3708 295.009 16.6291C294.073 15.8564 292.777 15.4701 291.122 15.4701C289.655 15.4701 288.438 15.7946 287.47 16.4436C286.533 17.0617 285.971 17.8962 285.784 18.947H280.82C281.07 16.5673 282.131 14.7284 284.005 13.4304C285.878 12.1015 288.328 11.437 291.357 11.437C294.572 11.437 297.054 12.1787 298.802 13.6622C300.55 15.1456 301.424 17.2781 301.424 20.0595V29.4238C301.424 30.5364 301.955 31.0927 303.017 31.0927H304ZM296.414 24.8808H290.139C288.578 24.8808 287.376 25.1898 286.533 25.8079C285.69 26.3951 285.269 27.2759 285.269 28.4503C285.269 29.4702 285.659 30.2892 286.44 30.9073C287.251 31.5254 288.344 31.8344 289.718 31.8344C291.809 31.8344 293.433 31.2781 294.588 30.1655C295.774 29.0529 296.383 27.5695 296.414 25.7152V24.8808Z" fill="white"/>
<path d="M279.695 11.7153V16.3975H277.447C275.355 16.3975 273.841 17.0774 272.905 18.4372C271.968 19.7661 271.5 21.4659 271.5 23.5366V35.4505H266.442V11.7153H270.938L271.5 15.2849C272.187 14.1723 273.076 13.3069 274.169 12.6888C275.262 12.0398 276.729 11.7153 278.571 11.7153H279.695Z" fill="white"/>
<path d="M251.091 35.7285C248.687 35.7285 246.548 35.234 244.675 34.245C242.834 33.2251 241.397 31.8035 240.367 29.9801C239.368 28.1258 238.869 25.9933 238.869 23.5827C238.869 21.203 239.368 19.1015 240.367 17.2781C241.397 15.4238 242.834 13.9867 244.675 12.9668C246.548 11.9469 248.687 11.437 251.091 11.437C253.495 11.437 255.617 11.9469 257.459 12.9668C259.332 13.9867 260.768 15.4238 261.767 17.2781C262.798 19.1015 263.313 21.203 263.313 23.5827C263.313 25.9933 262.798 28.1258 261.767 29.9801C260.768 31.8035 259.332 33.2251 257.459 34.245C255.617 35.234 253.495 35.7285 251.091 35.7285ZM251.091 31.4636C253.214 31.4636 254.915 30.7373 256.195 29.2847C257.506 27.8013 258.162 25.9006 258.162 23.5827C258.162 21.2648 257.506 19.3796 256.195 17.9271C254.915 16.4436 253.214 15.7019 251.091 15.7019C248.968 15.7019 247.267 16.4436 245.987 17.9271C244.707 19.3796 244.067 21.2648 244.067 23.5827C244.067 25.9006 244.707 27.8013 245.987 29.2847C247.267 30.7373 248.968 31.4636 251.091 31.4636Z" fill="white"/>
<path d="M235.752 11.7152V34.4768C235.752 37.8146 234.753 40.3951 232.756 42.2185C230.758 44.0729 227.667 45 223.484 45C220.237 45 217.599 44.2737 215.57 42.8212C213.541 41.3996 212.417 39.3753 212.198 36.7483H217.349C217.661 38.0773 218.379 39.0971 219.503 39.8079C220.627 40.5497 222.079 40.9205 223.858 40.9205C228.447 40.9205 230.742 38.7108 230.742 34.2914V31.649C228.994 34.245 226.387 35.543 222.922 35.543C220.736 35.543 218.785 35.064 217.068 34.1059C215.351 33.117 214.009 31.7262 213.041 29.9337C212.073 28.1103 211.589 25.9624 211.589 23.49C211.589 21.1103 212.073 19.0088 213.041 17.1854C214.04 15.362 215.398 13.9558 217.115 12.9668C218.832 11.9469 220.768 11.437 222.922 11.437C224.732 11.437 226.293 11.7924 227.604 12.5032C228.916 13.2141 229.977 14.1876 230.789 15.4238L231.351 11.7152H235.752ZM223.765 31.3245C225.856 31.3245 227.542 30.6137 228.822 29.192C230.102 27.7395 230.742 25.8697 230.742 23.5827C230.742 21.2339 230.102 19.3333 228.822 17.8807C227.542 16.3973 225.856 15.6556 223.765 15.6556C221.673 15.6556 219.987 16.3818 218.707 17.8344C217.427 19.2869 216.787 21.1721 216.787 23.49C216.787 25.8079 217.427 27.6931 218.707 29.1457C219.987 30.5982 221.673 31.3245 223.765 31.3245Z" fill="white"/>
<path d="M180 36C180 36 191.806 4.46382 192.703 1.91307C193.6 -0.637688 198.358 -0.637688 199.345 1.91307C201.285 6.92605 212 36 212 36H206.036L202.836 27.5757H188.921L185.77 36H180ZM190.473 22.8035H201.285L195.855 7.95132L190.473 22.8035Z" fill="white"/>
</svg>
