<?xml version="1.0" encoding="utf-8"?>
<!-- Generator: Adobe Illustrator 24.0.1, SVG Export Plug-In . SVG Version: 6.00 Build 0)  -->
<svg version="1.1" id="Capa_1" xmlns="http://www.w3.org/2000/svg" xmlns:xlink="http://www.w3.org/1999/xlink" x="0px" y="0px"
	 viewBox="0 0 68 33" style="enable-background:new 0 0 68 33;" xml:space="preserve">
<style type="text/css">
	.st0{fill:#FFFFFF;}
	.st1{fill:#00B5C9;}
</style>
<path class="st0" d="M14.2,0c2.3,0,4.2,0.4,5.9,1.3c1.7,0.8,3,2,3.9,3.6c1,1.5,1.4,3.3,1.4,5.4c0,2.1-0.6,4-1.7,5.6
	c-1.1,1.6-2.7,2.8-4.6,3.4L26,32.1h-5.9l-6.2-11.7H6.7V4.6l0-4.6L14.2,0z M6.7,15.9h7c1.9,0,3.4-0.5,4.5-1.5c1.1-1,1.7-2.4,1.7-4.1
	c0-1.7-0.6-3.1-1.7-4.1c-1.1-1-2.6-1.6-4.5-1.6h-7V15.9z"/>
<path class="st0" d="M6.7,20.5v-4.6L5,20.5H6.7z"/>
<path class="st0" d="M0,2.3C0,1,1,0,2.3,0h7.3c1.3,0,2.3,1,2.3,2.3c0,1.3-1,2.3-2.3,2.3H2.3C1,4.6,0,3.6,0,2.3z"/>
<path class="st1" d="M37.8,32.1c0,0,11.2-28.1,12-30.4c0.8-2.3,5.3-2.3,6.3,0c1.8,4.5,12,30.4,12,30.4h-5.6l-3-7.5H46.2l-3,7.5H37.8
	z M47.7,20.3h10.2L52.8,7.1L47.7,20.3z"/>
<path class="st0" d="M31.7,32.1h-5.3l5.3-15.4L37,1.4c1.8-2.8,5.3-0.9,4.4,1.9L31.7,32.1z"/>
</svg>
