<svg width="68" height="33" viewBox="0 0 68 33" fill="none" xmlns="http://www.w3.org/2000/svg">
<path d="M14.1576 2.04131e-05C16.4124 2.04131e-05 18.3892 0.428113 20.088 1.2843C21.7869 2.10991 23.0996 3.30245 24.0262 4.86193C24.9838 6.39083 25.4625 8.17965 25.4625 10.2284C25.4625 12.3688 24.8911 14.2494 23.7483 15.87C22.6054 17.4907 21.0765 18.6373 19.1614 19.3101L26.0185 32.107H20.088L13.9259 20.4567H6.69814L6.69814 4.58673L6.69812 0L14.1576 2.04131e-05ZM6.69814 15.87H13.7406C15.6556 15.87 17.1691 15.3655 18.2811 14.3564C19.424 13.3168 19.9954 11.9408 19.9954 10.2284C19.9954 8.51601 19.424 7.15528 18.2811 6.14621C17.1691 5.10656 15.6556 4.58673 13.7406 4.58673H6.69814V15.87Z" fill="white"/>
<path d="M6.69836 20.4568V15.8701L4.98265 20.4568H6.69836Z" fill="white"/>
<path d="M0 2.29335C0 1.02677 1.03717 0 2.31659 0L9.60306 0C10.8825 0 11.9197 1.02677 11.9197 2.29335C11.9197 3.55994 10.8825 4.58671 9.60306 4.58671L2.31659 4.58671C1.03717 4.58671 0 3.55994 0 2.29335Z" fill="white"/>
<path d="M37.7777 32.1111C37.7777 32.1111 48.9282 3.98162 49.775 1.70641C50.6218 -0.568802 55.1162 -0.568802 56.0484 1.70641C57.8804 6.17787 67.9999 32.1111 67.9999 32.1111H62.3676L59.3454 24.5968H46.2033L43.2269 32.1111H37.7777ZM47.6686 20.3401H57.8801L52.7515 7.09238L47.6686 20.3401Z" fill="white"/>
<path d="M31.7233 32.1111H26.4445L31.7233 16.7492L37.0022 1.38089C38.7618 -1.41164 42.3398 0.45096 41.4013 3.24929L31.7233 32.1111Z" fill="white"/>
</svg>
